<svg version="1.1" id="Layer_1" xmlns="http://www.w3.org/2000/svg" xmlns:xlink="http://www.w3.org/1999/xlink" x="0px" y="0px"
	 width="100%" viewBox="0 0 1024 1024" enable-background="new 0 0 1024 1024" xml:space="preserve">
<path fill="#000000" opacity="1.000000" stroke="none" 
	d="
M742.151001,500.866943 
	C749.161377,515.618286 757.545715,529.288208 761.835876,544.907654 
	C768.662170,569.760803 770.687744,594.912415 768.531494,620.554260 
	C767.381897,634.225220 764.811584,647.571106 761.056458,660.703247 
	C760.216980,663.638916 760.925110,665.376953 763.000000,667.221191 
	C769.351013,672.866211 775.655579,678.565369 781.897522,684.330811 
	C800.703186,701.700684 801.889771,727.434265 783.867554,745.479919 
	C752.193970,777.194702 720.209534,808.604736 688.010681,839.786621 
	C670.859009,856.396606 642.672729,853.596375 628.640137,834.222229 
	C616.034729,816.818542 603.694763,799.211243 591.715515,781.372803 
	C588.357727,776.372681 584.899902,774.730225 579.042664,775.371277 
	C556.344421,777.855591 534.219910,774.707581 512.696716,767.311035 
	C499.999481,762.947510 488.159668,756.890930 477.977356,747.990356 
	C475.371826,745.712830 472.544067,745.207458 469.249146,745.214661 
	C434.753143,745.290100 400.256958,745.263184 365.760803,745.283813 
	C336.011841,745.301636 315.840851,725.193909 315.775970,695.416992 
	C315.756714,686.584656 315.655640,677.750610 315.802002,668.920837 
	C315.858795,665.496826 314.749390,663.995544 311.182312,664.350342 
	C304.666840,664.998657 298.701904,662.991089 292.874481,660.309021 
	C284.552917,656.479065 276.148987,652.828064 267.830078,648.992493 
	C248.544159,640.100281 240.907913,619.638306 249.486130,600.006531 
	C257.386719,581.925537 278.598846,573.745544 297.420898,581.597473 
	C303.224152,584.018433 308.933807,586.663696 314.706970,589.215393 
	C316.378174,586.852295 315.585938,584.645264 315.712982,582.576294 
	C315.835114,580.587708 314.915985,579.279175 312.798828,579.433716 
	C303.300049,580.127319 295.456207,575.390198 287.277771,571.752014 
	C280.886078,568.908691 274.497253,566.057861 268.136749,563.145691 
	C249.730682,554.718262 241.712585,536.464539 247.829956,517.139343 
	C252.895004,501.138397 262.523651,490.079559 279.847290,487.204987 
	C286.465210,486.106873 292.781891,487.164917 298.886047,489.768677 
	C304.169312,492.022308 309.430115,494.328613 314.908600,496.701599 
	C316.038483,493.138306 313.839325,492.791290 312.064117,492.020111 
	C298.472534,486.115326 284.827667,480.326874 271.330353,474.213074 
	C255.811630,467.183655 247.392868,453.084259 248.773392,437.106659 
	C250.408630,418.181091 262.777283,402.303925 279.109558,398.310181 
	C286.963684,396.389618 294.627197,397.197449 302.072144,400.330750 
	C306.313232,402.115662 310.585449,403.826752 314.944580,405.612427 
	C316.528076,401.840363 313.858429,401.422272 312.061066,400.615234 
	C290.031860,390.723511 267.977661,380.887421 245.942154,371.009735 
	C238.640656,367.736755 231.251312,364.584808 225.874832,358.264099 
	C213.472778,343.684021 212.700409,323.192078 223.987152,307.901825 
	C234.848267,293.188141 254.444870,287.977112 271.873718,295.411194 
	C284.435059,300.769012 296.860413,306.445374 309.360870,311.946838 
	C311.148956,312.733795 312.804108,314.008698 315.000977,313.790680 
	C316.371948,312.198944 315.758545,310.289734 315.761871,308.551544 
	C315.812500,281.887970 315.718903,255.223877 315.840210,228.560730 
	C315.953766,203.596466 331.412872,184.948502 355.821106,180.185440 
	C358.568207,179.649353 361.451874,179.673996 364.272278,179.673157 
	C431.931427,179.653168 499.590607,179.658478 567.249756,179.674789 
	C594.797180,179.681427 615.773865,200.191605 616.144226,227.794708 
	C616.412537,247.789352 616.267639,267.789520 616.306030,287.787231 
	C616.309509,289.600494 616.306396,291.413727 616.306396,293.529266 
	C620.486328,294.066254 624.057312,292.477844 627.735291,291.966888 
	C640.102295,290.248749 650.179565,296.008118 652.842773,306.507996 
	C653.759583,310.122772 653.676941,313.860779 653.114380,317.440857 
	C649.841492,338.271484 654.568237,356.913208 667.012878,373.991516 
	C683.298950,396.341644 699.193359,418.980438 715.043396,441.643951 
	C727.209595,459.040161 734.018921,478.972687 741.254089,498.675049 
	C741.482788,499.297791 741.749817,499.906494 742.151001,500.866943 
M331.200500,673.503845 
	C331.204620,677.335876 331.204742,681.167908 331.213928,684.999939 
	C331.225128,689.666077 331.196198,694.333008 331.268066,698.998291 
	C331.525574,715.713135 344.385895,729.338867 361.140656,729.830139 
	C376.792572,730.289062 392.467224,729.996460 408.131866,729.990540 
	C461.460236,729.970276 514.788757,729.979248 568.116943,729.869263 
	C584.712097,729.835022 598.299805,719.108521 600.306580,703.548401 
	C601.555542,693.864929 601.663330,683.888855 600.028076,674.160095 
	C596.201416,651.393982 594.599609,628.628479 597.427429,605.582153 
	C598.419128,597.499634 600.807129,589.623169 600.811035,581.416870 
	C600.831787,537.754272 600.811829,494.091522 600.945862,450.429230 
	C600.958862,446.194946 599.745972,442.855408 597.299927,439.420990 
	C585.292114,422.560669 578.743958,403.802063 578.657532,382.970367 
	C578.607788,370.971649 578.515076,358.970856 578.677002,346.974152 
	C578.897400,330.647461 585.042114,316.831299 597.150513,305.858276 
	C599.715149,303.534119 600.948547,301.237213 600.928833,297.730927 
	C600.800110,274.900391 600.884399,252.068741 600.828430,229.237625 
	C600.821533,226.424515 600.729248,223.536606 600.109436,220.812347 
	C596.458740,204.765488 583.957764,195.063629 566.709412,195.030853 
	C519.213928,194.940567 471.718262,194.951981 424.222656,194.941605 
	C403.891205,194.937164 383.558472,194.843460 363.228729,195.039261 
	C345.104858,195.213776 331.310974,209.114441 331.289124,227.209442 
	C331.216431,287.370453 331.304688,347.531677 331.168823,407.692474 
	C331.159241,411.929260 332.543091,414.192169 336.493317,415.343048 
	C338.552917,415.943176 340.505524,416.974365 342.432404,417.956146 
	C357.166138,425.463043 365.317841,437.184601 364.237152,454.037415 
	C363.242188,469.553406 353.989990,488.261627 335.553558,492.745758 
	C332.109711,493.583374 331.162323,495.313416 331.117035,498.681213 
	C331.065002,502.554596 331.893250,505.341522 335.660187,507.162994 
	C338.987366,508.771851 341.463806,511.599670 343.744934,514.500183 
	C355.766296,529.785583 354.763519,553.306702 339.174347,567.673767 
	C331.839478,574.433655 330.747375,581.017212 331.260590,589.402222 
	C331.321594,590.398560 331.384766,591.415283 331.260345,592.398987 
	C330.801361,596.027832 332.257019,598.551270 334.927704,601.080627 
	C349.265381,614.659973 351.081665,636.410522 337.768585,650.978638 
	C332.124756,657.154480 330.526245,663.029968 331.192810,670.507751 
	C331.251770,671.168884 331.196381,671.840210 331.200500,673.503845 
M751.012817,676.488953 
	C747.080017,672.577637 742.030762,669.507568 744.463074,662.295959 
	C752.368164,638.857544 755.238464,614.764893 753.875916,590.022400 
	C752.517944,565.364258 746.970886,542.011902 734.885437,520.343689 
	C730.825134,513.063660 727.255798,505.539185 724.519653,497.647614 
	C718.003174,478.852661 710.270264,460.645111 698.632568,444.344727 
	C683.723877,423.462738 668.882446,402.531311 653.803528,381.772675 
	C639.234253,361.715637 634.053101,339.545013 637.926025,315.154327 
	C638.887024,309.101776 637.305298,307.261566 631.176147,307.295898 
	C613.669006,307.393982 596.300598,323.908539 594.227356,342.058472 
	C592.609741,356.218903 593.734070,370.341492 594.159424,384.481384 
	C594.702515,402.537048 600.677124,418.636230 611.558960,433.007080 
	C615.176025,437.783936 618.738220,442.612335 621.627991,447.897400 
	C635.184509,472.691132 635.251160,499.259674 631.723145,526.210022 
	C629.620300,542.274292 624.587769,557.642822 619.766541,573.056519 
	C612.066284,597.674561 609.794189,622.882568 612.065430,648.557678 
	C613.482727,664.580139 617.098450,680.288940 616.496826,696.637451 
	C615.472900,724.462036 595.242432,745.209045 567.397278,745.258789 
	C547.232483,745.294739 527.067566,745.278137 506.902740,745.284790 
	C505.179749,745.285339 503.456757,745.284851 501.733765,745.284851 
	C502.385498,746.571899 503.079590,747.000244 503.802856,747.371826 
	C504.838470,747.903870 505.882019,748.424255 506.945129,748.898254 
	C532.465210,760.276428 559.146606,762.970337 586.599243,759.240173 
	C591.688354,758.548645 595.339294,759.812744 598.163757,764.062927 
	C601.114075,768.502319 604.260437,772.811340 607.312622,777.183289 
	C618.090576,792.621277 628.780151,808.121826 639.665894,823.483459 
	C649.312500,837.096497 667.217712,839.096436 678.779541,827.723755 
	C710.261230,796.757019 741.659180,765.704529 772.975769,734.570862 
	C784.189209,723.422974 783.679321,706.693054 772.117249,695.939575 
	C765.284851,689.585083 758.388062,683.299805 751.012817,676.488953 
M271.568726,365.843140 
	C286.005371,372.361053 300.442017,378.878967 315.744354,385.787720 
	C315.744354,367.656311 315.729095,350.875946 315.760742,334.095703 
	C315.765503,331.562836 314.006531,330.732971 312.143890,329.910156 
	C296.780029,323.123413 281.485077,316.174530 266.030029,309.602081 
	C252.572723,303.879242 239.348053,309.125549 233.533966,322.065704 
	C227.949112,334.495667 233.037903,348.064270 245.866959,354.254974 
	C254.101990,358.228790 262.522095,361.819092 271.568726,365.843140 
M313.971039,476.470032 
	C318.262726,478.295990 322.488739,480.008850 327.410736,479.359741 
	C339.104858,477.817627 344.229065,469.618622 347.664856,459.742523 
	C351.747284,448.007507 347.639557,437.392090 336.457275,432.168213 
	C322.742126,425.761139 308.830048,419.756531 294.858276,413.924866 
	C286.578003,410.468811 277.113525,412.952637 271.699615,419.529510 
	C268.060272,423.950714 265.548370,429.038330 264.321686,434.655243 
	C261.768768,446.344879 266.320007,455.411469 277.179504,460.246613 
	C289.189697,465.594116 301.243713,470.843262 313.971039,476.470032 
M261.159485,526.822815 
	C260.164612,536.476562 263.751648,543.933411 272.476349,548.212830 
	C282.773987,553.263794 293.246490,557.992065 303.824097,562.428955 
	C314.475952,566.896973 325.022614,563.271851 331.184540,553.541016 
	C333.424072,550.004333 334.987122,546.177429 335.917145,542.072571 
	C338.081879,532.518555 334.254303,522.703857 325.485626,518.376404 
	C314.314514,512.863342 302.879944,507.814880 291.296661,503.228607 
	C282.699524,499.824677 272.888245,503.157135 267.724335,510.455109 
	C264.441528,515.094604 261.945129,520.174500 261.159485,526.822815 
M298.195251,646.296936 
	C302.527863,647.985168 306.809296,650.072998 311.640869,649.396912 
	C323.086243,647.795105 329.641052,640.916199 331.379700,628.870239 
	C332.586853,620.506653 327.258942,611.772095 318.057404,607.489624 
	C309.609985,603.558167 301.077759,599.805481 292.535645,596.082458 
	C288.710571,594.415283 284.745148,593.154724 280.450775,593.788391 
	C270.066833,595.320557 262.867340,602.015198 261.410400,611.500793 
	C259.749115,622.316650 264.232605,630.722717 274.327087,635.430725 
	C282.017548,639.017334 289.774200,642.461975 298.195251,646.296936 
M618.634216,493.773773 
	C618.036804,488.301697 617.439331,482.829620 616.841858,477.357544 
	C616.619568,477.381134 616.397278,477.404724 616.174988,477.428314 
	C616.174988,493.218445 616.174988,509.008575 616.174988,524.798706 
	C618.188354,514.859802 618.939575,504.831329 618.634216,493.773773 
z"/>
<path fill="#000000" opacity="1.000000" stroke="none" 
	d="
M504.999878,456.406555 
	C497.671112,456.396973 490.840637,456.293610 484.014313,456.417694 
	C480.821564,456.475708 479.577393,455.267517 479.599670,452.037994 
	C479.697357,437.881439 479.649597,423.723816 479.629913,409.566559 
	C479.626770,407.304993 480.123291,405.663788 482.892883,405.676697 
	C499.210602,405.752808 515.528503,405.778931 531.846313,405.842987 
	C532.138184,405.844147 532.429016,406.106995 533.351929,406.552826 
	C533.351929,411.857269 533.352905,417.469086 533.351746,423.080872 
	C533.349792,432.574585 533.221863,442.070740 533.406494,451.560822 
	C533.478577,455.264191 532.144470,456.547028 528.483276,456.455994 
	C520.826477,456.265656 513.161499,456.403137 504.999878,456.406555 
M509.238037,419.425629 
	C506.073212,419.422272 502.903778,419.524780 499.744873,419.386108 
	C496.516907,419.244415 495.243622,420.637085 495.328857,423.833801 
	C495.462006,428.827301 495.409119,433.827606 495.341949,438.823792 
	C495.309875,441.209259 496.033600,442.647675 498.715576,442.619904 
	C504.211395,442.563049 509.708313,442.593781 515.204712,442.610168 
	C517.448853,442.616852 518.620605,441.576904 518.616211,439.294891 
	C518.605591,433.798767 518.607666,428.302551 518.582275,422.806519 
	C518.571838,420.546875 517.349915,419.476990 515.135254,419.460144 
	C513.469666,419.447479 511.804108,419.437592 509.238037,419.425629 
z"/>
<path fill="#000000" opacity="1.000000" stroke="none" 
	d="
M408.133972,476.646576 
	C423.087219,476.646698 437.556305,476.775940 452.021118,476.584045 
	C456.161499,476.529144 457.483856,477.913910 457.420746,482.019897 
	C457.216370,495.320221 457.229095,508.627197 457.414490,521.928040 
	C457.469757,525.890503 456.436066,527.545593 452.145081,527.481018 
	C437.680878,527.263489 423.210175,527.293335 408.744781,527.465576 
	C404.798828,527.512512 403.539185,526.076721 403.581909,522.239990 
	C403.733856,508.605713 403.671539,494.968567 403.610535,481.332855 
	C403.597687,478.458771 404.113403,476.329315 408.133972,476.646576 
M419.367950,497.774109 
	C419.368713,501.773224 419.414276,505.772980 419.354736,509.771179 
	C419.314240,512.491089 420.497742,513.703979 423.264221,513.657349 
	C428.428253,513.570251 433.595367,513.593872 438.760132,513.657898 
	C441.486572,513.691711 442.700195,512.516663 442.652313,509.753632 
	C442.565674,504.756317 442.539612,499.754395 442.655457,494.758301 
	C442.731079,491.496490 441.243500,490.300812 438.112549,490.392792 
	C433.950348,490.515076 429.750977,490.743134 425.623871,490.343994 
	C420.426941,489.841370 418.541534,491.904541 419.367950,497.774109 
z"/>
<path fill="#000000" opacity="1.000000" stroke="none" 
	d="
M404.434998,406.426056 
	C421.220642,405.131836 437.675018,405.856171 454.122437,405.696411 
	C456.456238,405.673737 457.326141,406.897339 457.322021,409.122498 
	C457.294830,423.756042 457.296143,438.389709 457.318207,453.023254 
	C457.321655,455.300903 456.297211,456.358521 454.018494,456.355682 
	C438.387299,456.336243 422.756073,456.331573 407.124878,456.344971 
	C404.906311,456.346863 403.665283,455.422699 403.691376,453.110748 
	C403.865662,437.662933 403.088440,422.206848 404.434998,406.426056 
M442.353363,420.992493 
	C441.880646,420.561249 441.416901,419.765808 440.933899,419.753906 
	C434.626251,419.598877 428.314911,419.461578 422.006744,419.529114 
	C419.516571,419.555786 419.377167,421.617859 419.375763,423.540924 
	C419.372131,428.529602 419.463226,433.521118 419.321075,438.505920 
	C419.236572,441.469604 420.329956,442.749329 423.374207,442.668274 
	C428.359253,442.535583 433.353729,442.532104 438.338104,442.679962 
	C441.618744,442.777283 442.770142,441.332764 442.680847,438.191528 
	C442.525024,432.708557 442.572205,427.219849 442.353363,420.992493 
z"/>
<path fill="#000000" opacity="1.000000" stroke="none" 
	d="
M380.347656,509.078308 
	C380.345856,520.557800 380.481567,531.548218 380.267395,542.531799 
	C380.191772,546.409424 381.329590,547.811707 385.352997,547.743225 
	C398.001831,547.527832 410.656708,547.657166 423.309265,547.672302 
	C430.310364,547.680664 430.310608,547.697937 430.339966,554.905090 
	C430.343353,555.737488 430.268066,556.577637 430.354462,557.401001 
	C430.727112,560.952576 429.411530,562.445312 425.601105,562.415649 
	C406.956390,562.270142 388.309662,562.297974 369.664337,562.394958 
	C366.155701,562.413208 364.577393,561.393921 364.609497,557.577087 
	C364.752289,540.597290 364.737640,523.614990 364.609009,506.634949 
	C364.581665,503.025848 365.743927,501.313904 369.472473,501.668152 
	C370.792267,501.793549 372.134247,501.679596 373.466064,501.685394 
	C380.257019,501.714935 380.257019,501.716095 380.347656,509.078308 
z"/>
<path fill="#000000" opacity="1.000000" stroke="none" 
	d="
M569.349976,514.016602 
	C569.346924,528.670959 569.222778,542.830444 569.416016,556.985657 
	C569.471924,561.083679 568.183289,562.472412 564.019470,562.430481 
	C545.865906,562.247620 527.708130,562.232300 509.555084,562.438477 
	C505.051300,562.489685 503.383209,561.189270 503.561584,556.524597 
	C503.940643,546.612732 502.826080,547.722412 512.495911,547.676697 
	C524.321655,547.620850 536.151306,547.505493 547.971985,547.757263 
	C552.254517,547.848450 553.855103,546.693237 553.742493,542.175232 
	C553.456360,530.689514 553.803772,519.188843 553.573547,507.700623 
	C553.486389,503.351501 554.515442,501.440338 559.344788,501.591217 
	C571.276917,501.963959 569.116638,500.720551 569.349976,514.016602 
z"/>
<path fill="#000000" opacity="1.000000" stroke="none" 
	d="
M553.995544,369.667725 
	C569.348999,369.676270 569.351257,369.676270 569.348450,384.614502 
	C569.345825,398.276550 569.205872,411.940582 569.411316,425.599457 
	C569.473816,429.751831 568.064209,431.145538 563.966125,431.106384 
	C551.552124,430.987823 553.781067,431.181366 553.675781,420.941467 
	C553.562805,409.946320 553.546692,398.947662 553.705811,387.953705 
	C553.756226,384.472229 552.546265,383.290192 549.075928,383.324402 
	C535.748535,383.455658 522.411804,383.101166 509.093384,383.466125 
	C503.317322,383.624390 503.586914,380.408051 503.611572,376.525604 
	C503.635742,372.722046 503.172272,369.412170 509.014252,369.553925 
	C523.833801,369.913574 538.667969,369.670044 553.995544,369.667725 
z"/>
<path fill="#000000" opacity="1.000000" stroke="none" 
	d="
M380.333435,411.999084 
	C380.331299,417.161194 380.261902,421.824860 380.351593,426.485504 
	C380.403809,429.199249 379.337769,430.390350 376.542999,430.377289 
	C361.869812,430.308716 364.844330,431.416931 364.698090,419.463470 
	C364.516785,404.645752 364.779724,389.822510 364.589355,375.005035 
	C364.535583,370.819672 366.038116,369.571564 370.094269,369.606934 
	C388.409698,369.766663 406.731293,369.895630 425.042023,369.560944 
	C431.491547,369.443054 430.132416,373.451111 430.365143,377.103821 
	C430.622467,381.142517 430.009491,383.600800 424.832642,383.460571 
	C411.853973,383.109039 398.855957,383.517151 385.872833,383.259491 
	C381.395752,383.170624 380.088623,384.702881 380.260223,389.022949 
	C380.557434,396.504242 380.336548,404.006134 380.333435,411.999084 
z"/>
<path fill="#000000" opacity="1.000000" stroke="none" 
	d="
M438.109131,213.003265 
	C457.569916,213.011444 476.547211,212.995819 495.524323,213.052933 
	C497.834503,213.059891 500.223206,213.156815 502.435455,213.741776 
	C506.298737,214.763336 508.380463,217.653290 507.963470,221.561127 
	C507.552399,225.413010 505.054443,227.802048 501.033783,228.256119 
	C500.374756,228.330566 499.703491,228.310562 499.037872,228.310547 
	C476.897522,228.309814 454.757172,228.292984 432.616882,228.318832 
	C429.671143,228.322281 426.954224,227.883591 424.981384,225.448334 
	C421.729675,221.434372 423.639343,215.401871 428.707886,213.720871 
	C431.610138,212.758301 434.632843,212.998276 438.109131,213.003265 
z"/>
<path fill="#000000" opacity="1.000000" stroke="none" 
	d="
M515.617615,487.326233 
	C515.854919,475.254578 513.915710,476.805084 526.061035,476.633942 
	C527.559631,476.612823 529.061829,476.717682 530.557739,476.655243 
	C533.315369,476.540131 534.232971,477.834961 534.403687,480.548035 
	C535.211731,493.391388 535.281494,493.387665 522.719299,493.412872 
	C520.570618,493.417175 518.421997,493.413452 516.567261,493.413452 
	C514.908264,491.418060 515.762573,489.521484 515.617615,487.326233 
z"/>
<path fill="#000000" opacity="1.000000" stroke="none" 
	d="
M515.355957,504.914795 
	C515.922852,509.439484 513.913635,510.808777 510.180817,510.419189 
	C509.688812,510.367828 509.186066,510.429504 508.688965,510.415680 
	C494.526337,510.021881 496.846222,513.199585 496.648132,497.367157 
	C496.612457,494.517578 497.942627,493.516571 500.583405,493.648376 
	C501.906647,493.714417 503.236359,493.647278 504.563141,493.646912 
	C515.350037,493.643982 515.350037,493.644440 515.355957,504.914795 
z"/>
<path fill="#000000" opacity="1.000000" stroke="none" 
	d="
M490.905457,527.404968 
	C490.084717,527.409180 489.753601,527.411133 489.422455,527.411316 
	C476.299500,527.417603 476.297791,527.345886 477.617584,514.088623 
	C477.874054,511.512451 478.963379,510.583405 481.352081,510.660706 
	C482.509277,510.698120 483.670288,510.609741 484.828156,510.637146 
	C498.166260,510.953033 496.077301,508.305664 496.406219,522.679565 
	C496.492737,526.460022 494.921478,527.795959 490.905457,527.404968 
z"/>
<path fill="#000000" opacity="1.000000" stroke="none" 
	d="
M518.178101,510.727661 
	C522.641724,510.668884 526.668213,510.285767 530.596069,510.745392 
	C537.571655,511.561707 533.587952,517.175537 534.189941,520.557678 
	C534.642639,523.100891 536.001160,527.397400 530.576294,527.388123 
	C526.925781,527.381836 523.273926,527.331909 519.625305,527.415405 
	C516.997498,527.475525 515.563477,526.539978 515.640747,523.694885 
	C515.726257,520.544983 515.613586,517.390137 515.641846,514.237976 
	C515.655396,512.722900 515.722473,511.165833 518.178101,510.727661 
z"/>
<path fill="#000000" opacity="1.000000" stroke="none" 
	d="
M533.788452,217.337006 
	C535.138611,221.772369 534.530884,225.293015 530.431030,227.420883 
	C527.486572,228.949097 524.630493,228.615952 522.182678,226.276840 
	C518.905701,223.145432 518.906311,218.211151 522.121033,215.202255 
	C525.625793,211.921860 529.725464,212.565613 533.788452,217.337006 
z"/>
</svg>